HIERARCHY
ROOT pelvis
{
	OFFSET 0.000000 0.000000 0.676596
	CHANNELS 6 Xposition Yposition Zposition Xrotation Yrotation Zrotation
	JOINT spine
	{
		OFFSET 0.000000 0.000000 0.000000
		CHANNELS 6 Xposition Yposition Zposition Xrotation Yrotation Zrotation
		JOINT spine.001
		{
			OFFSET 0.000000 -0.012667 0.241702
			CHANNELS 3 Xrotation Yrotation Zrotation
			JOINT neck
			{
				OFFSET 0.000000 0.029496 0.240229
				CHANNELS 6 Xposition Yposition Zposition Xrotation Yrotation Zrotation
				JOINT face
				{
					OFFSET 0.000000 0.003065 0.175617
					CHANNELS 6 Xposition Yposition Zposition Xrotation Yrotation Zrotation
					End Site
					{
						OFFSET 0.000000 -0.024338 -0.007037
					}
				}
			}
			JOINT shoulder.L
			{
				OFFSET 0.000000 0.029496 0.240229
				CHANNELS 6 Xposition Yposition Zposition Yrotation Xrotation Zrotation
				JOINT upper_arm.L
				{
					OFFSET 0.144323 0.000000 0.000000
					CHANNELS 6 Xposition Yposition Zposition Xrotation Yrotation Zrotation
					JOINT forearm.L
					{
						OFFSET 0.244449 0.000104 0.000865
						CHANNELS 6 Xposition Yposition Zposition Xrotation Yrotation Zrotation
						End Site
						{
							OFFSET 0.221662 -0.003773 -0.001192
						}
					}
				}
			}
			JOINT shoulder.R
			{
				OFFSET 0.000000 0.029496 0.240229
				CHANNELS 6 Xposition Yposition Zposition Yrotation Xrotation Zrotation
				JOINT upper_arm.R
				{
					OFFSET -0.144323 0.000000 0.000000
					CHANNELS 6 Xposition Yposition Zposition Xrotation Yrotation Zrotation
					JOINT forearm.R
					{
						OFFSET -0.241528 0.000104 0.000865
						CHANNELS 6 Xposition Yposition Zposition Xrotation Yrotation Zrotation
						End Site
						{
							OFFSET -0.217530 -0.003701 -0.001192
						}
					}
				}
			}
		}
	}
	JOINT pelvis.L
	{
		OFFSET 0.000000 0.000000 0.000000
		CHANNELS 6 Xposition Yposition Zposition Yrotation Xrotation Zrotation
		End Site
		{
			OFFSET 0.092257 0.000000 0.000000
		}
	}
	JOINT pelvis.R
	{
		OFFSET 0.000000 0.000000 0.000000
		CHANNELS 6 Xposition Yposition Zposition Yrotation Xrotation Zrotation
		End Site
		{
			OFFSET -0.092257 0.000000 0.000000
		}
	}
	JOINT thigh.L
	{
		OFFSET 0.092257 0.000000 0.000000
		CHANNELS 6 Xposition Yposition Zposition Xrotation Yrotation Zrotation
		JOINT shin.L
		{
			OFFSET 0.017006 0.000000 -0.324500
			CHANNELS 6 Xposition Yposition Zposition Xrotation Yrotation Zrotation
			JOINT foot.L
			{
				OFFSET 0.015154 0.000000 -0.289152
				CHANNELS 3 Xrotation Yrotation Zrotation
				End Site
				{
					OFFSET 0.013670 -0.139382 -0.058529
				}
			}
			JOINT heel.02.L
			{
				OFFSET 0.015154 0.000000 -0.289152
				CHANNELS 3 Xrotation Yrotation Zrotation
				End Site
				{
					OFFSET 0.073837 0.031102 -0.058318
				}
			}
		}
	}
	JOINT thigh.R
	{
		OFFSET -0.092257 0.000000 0.000000
		CHANNELS 6 Xposition Yposition Zposition Xrotation Yrotation Zrotation
		JOINT shin.R
		{
			OFFSET -0.016969 0.000000 -0.323782
			CHANNELS 6 Xposition Yposition Zposition Xrotation Yrotation Zrotation
			JOINT foot.R
			{
				OFFSET -0.015331 0.000000 -0.292534
				CHANNELS 3 Xrotation Yrotation Zrotation
				End Site
				{
					OFFSET -0.014343 -0.146242 -0.061410
				}
			}
			JOINT heel.02.R
			{
				OFFSET -0.015331 0.000000 -0.292534
				CHANNELS 3 Xrotation Yrotation Zrotation
				End Site
				{
					OFFSET -0.070735 0.031102 -0.055809
				}
			}
		}
	}
}
MOTION
Frames: 6
Frame Time: 0.041667
-0.055094 0.058018 0.663633 -0.000000 0.000000 21.891957 0.000000 -0.000000 -0.000000 -5.628847 -0.188509 -0.019195 9.685563 2.079170 17.198041 0.000000 0.029496 0.240229 38.596528 16.226982 12.870867 -0.000000 0.003065 0.175617 -1.141643 0.000002 0.000002 0.000000 0.029496 0.240229 0.183029 0.000038 -0.022488 0.144323 0.000000 0.000000 42.386549 79.357550 -50.092003 0.244449 0.000104 0.000865 0.782961 5.003444 -18.002388 0.000000 0.029496 0.240229 0.236414 0.000061 -0.029018 -0.144324 0.000000 -0.000000 18.496466 -74.736886 24.075915 -0.241528 0.000104 0.000865 3.442283 -15.898655 23.204466 0.000000 0.000000 -0.000000 0.335525 0.000000 0.000039 0.000000 0.000000 -0.000000 0.335488 0.000000 0.000000 0.092256 0.000000 -0.000540 -10.484505 -3.477961 -0.868808 0.017006 0.000000 -0.324500 3.938438 1.649567 0.149877 6.195085 5.286863 -13.234524 -6.177930 41.752554 35.360412 -0.092256 0.000000 0.000540 2.550502 -9.361780 0.075507 -0.016969 -0.000000 -0.323782 -2.630105 -2.127894 0.089094 -0.268154 9.659651 -22.126842 -27.257094 -52.773122 -41.511868 
-0.055925 0.057275 0.663889 -0.000000 0.000000 21.776919 -0.000000 -0.000000 -0.000000 -5.526330 0.251840 0.025414 9.688476 2.069767 17.118035 0.000000 0.029496 0.240229 38.620430 16.414104 12.991103 0.000000 0.003065 0.175617 -1.131845 0.000002 0.000001 0.000000 0.029496 0.240229 0.154335 0.000025 -0.018988 0.144323 0.000000 -0.000000 42.695844 79.423311 -50.392449 0.244449 0.000104 0.000865 0.728228 4.712287 -17.910141 0.000000 0.029496 0.240229 0.207765 0.000045 -0.025541 -0.144323 -0.000000 0.000000 18.984815 -74.642527 24.742931 -0.241528 0.000104 0.000865 3.514049 -16.230261 23.178559 0.000000 -0.000000 -0.000000 0.470270 -0.000000 0.000027 0.000000 -0.000000 -0.000000 0.470270 -0.000000 -0.000003 0.092254 -0.000000 -0.000757 -10.239672 -3.617879 -0.860890 0.017006 0.000000 -0.324500 3.586847 1.707524 0.134681 6.433578 5.303407 -13.306154 -6.129278 41.762143 35.445417 -0.092254 0.000000 0.000757 2.551994 -9.453645 0.077623 -0.016969 0.000000 -0.323782 -2.593074 -2.157334 0.087175 -0.544832 9.620607 -21.838516 -27.039662 -52.634295 -41.174819 
-0.056642 0.057001 0.664014 -0.000000 0.000000 21.824872 0.000000 0.000000 -0.000000 -5.391666 0.733208 0.073131 9.688640 2.069107 17.112013 -0.000000 0.029496 0.240229 38.821364 16.104042 13.469624 0.000000 0.003065 0.175617 -1.088406 0.000001 -0.000001 0.000000 0.029496 0.240229 0.047517 0.000002 -0.005871 0.144323 0.000000 0.000000 43.668155 79.526727 -51.413320 0.244449 0.000104 0.000865 0.683924 4.456808 -17.924667 0.000000 0.029496 0.240229 0.100950 0.000010 -0.012401 -0.144324 -0.000000 -0.000000 18.940878 -74.542526 24.729432 -0.241528 0.000104 0.000865 3.508411 -16.328419 22.985335 0.000000 0.000000 0.000000 0.570998 0.000000 0.000055 0.000000 0.000000 0.000000 0.570998 0.000000 0.000002 0.092253 -0.000000 -0.000919 -10.202744 -3.657804 -0.861313 0.017006 0.000000 -0.324500 3.520517 1.654976 0.133799 6.590705 5.381324 -13.545656 -6.191705 41.769574 35.377979 -0.092253 0.000000 0.000919 2.583312 -9.510042 0.079859 -0.016969 0.000000 -0.323782 -2.681328 -2.209682 0.088919 -0.605835 9.639209 -21.835012 -27.006112 -52.624856 -41.193192 
-0.057070 0.057110 0.664051 -0.000000 0.000000 21.912727 -0.000000 0.000000 -0.000000 -5.242063 1.211426 0.119235 9.681820 2.091217 17.300908 0.000000 0.029496 0.240229 39.289864 15.536848 13.883586 0.000000 0.003065 0.175617 -0.989458 -0.000002 -0.000005 0.000000 0.029496 0.240229 -0.105433 0.000012 0.012927 0.144323 0.000000 0.000000 45.556324 79.596757 -53.487461 0.244449 0.000104 0.000865 0.625852 4.102234 -18.057340 0.000000 0.029496 0.240229 -0.052048 0.000003 0.006408 -0.144323 0.000000 0.000000 18.350661 -74.515199 23.981201 -0.241528 0.000104 0.000865 3.441127 -16.174639 22.757885 -0.000000 0.000000 -0.000000 0.665064 0.000000 0.000009 -0.000000 0.000000 -0.000000 0.665064 0.000000 0.000002 0.092251 -0.000000 -0.001071 -10.314737 -3.638923 -0.869123 0.017006 -0.000000 -0.324500 3.723491 1.534357 0.145434 6.435772 5.464763 -13.766140 -6.408642 41.767256 35.083113 -0.092251 0.000000 0.001071 2.614329 -9.503705 0.080672 -0.016969 -0.000000 -0.323782 -2.791343 -2.299824 0.090374 -0.590844 9.690812 -21.959053 -26.878070 -52.607760 -41.372529 
-0.057158 0.057213 0.663932 -0.000000 0.000000 21.978053 0.000000 -0.000000 -0.000000 -5.116849 1.645853 0.160180 9.672683 2.120201 17.548627 0.000000 0.029496 0.240229 39.945716 14.955107 13.786475 0.000000 0.003066 0.175617 -0.810571 0.000001 0.000002 -0.000000 0.029496 0.240229 -0.268382 0.000079 0.032879 0.144323 0.000000 0.000000 47.557149 79.617691 -55.715229 0.244449 0.000104 0.000865 0.563237 3.721528 -18.223378 -0.000000 0.029496 0.240229 -0.215043 0.000050 0.026357 -0.144324 0.000000 -0.000000 17.590116 -74.573085 22.977320 -0.241528 0.000104 0.000865 3.333649 -15.868203 22.479901 0.000000 0.000000 0.000000 0.766499 -0.000000 -0.000017 0.000000 0.000000 0.000000 0.766498 -0.000000 0.000000 0.092249 0.000000 -0.001234 -10.424680 -3.622631 -0.876961 0.017006 0.000000 -0.324500 4.005096 1.418714 0.160478 5.834857 5.511616 -13.827841 -6.693113 41.714223 34.587835 -0.092249 0.000000 0.001234 2.633237 -9.474884 0.080586 -0.016969 -0.000000 -0.323782 -2.824185 -2.373958 0.089607 -0.687429 9.759309 -22.038603 -26.561243 -52.508712 -41.486320 
-0.056976 0.057235 0.663643 -0.000000 0.000000 22.073879 0.000000 -0.000000 0.000000 -5.027020 2.018491 0.194861 9.670766 2.126228 17.600218 0.000000 0.029496 0.240229 40.561652 14.394835 13.403128 0.000000 0.003065 0.175617 -0.756443 -0.000002 -0.000006 -0.000000 0.029496 0.240229 -0.423011 0.000192 0.051926 0.144323 -0.000000 0.000000 48.381044 79.613470 -56.639777 0.244449 0.000104 0.000865 0.545583 3.609344 -18.309782 -0.000000 0.029496 0.240229 -0.369680 0.000147 0.045349 -0.144324 -0.000000 -0.000000 17.071873 -74.653729 22.277473 -0.241528 0.000104 0.000865 3.200386 -15.536363 22.041630 0.000000 -0.000000 0.000000 0.871564 0.000001 -0.000087 0.000000 -0.000000 0.000000 0.871601 -0.000000 0.000000 0.092247 -0.000000 -0.001403 -10.438264 -3.598555 -0.875921 0.017006 0.000000 -0.324500 4.171421 1.303754 0.171332 4.629273 5.535394 -13.754450 -7.014266 41.633056 33.979693 -0.092247 -0.000000 0.001403 2.620042 -9.488775 0.080509 -0.016969 -0.000000 -0.323782 -2.734319 -2.344794 0.087451 -0.919748 9.854368 -22.076693 -26.225121 -52.374109 -41.441083 
